<!DOCTYPE svg PUBLIC "-//W3C//DTD SVG 1.1//EN" "http://www.w3.org/Graphics/SVG/1.1/DTD/svg11.dtd">

<!-- Uploaded to: SVG Repo, www.svgrepo.com, Transformed by: SVG Repo Mixer Tools -->
<svg fill="#bc2424" width="800px" height="800px" viewBox="-2.4 -2.4 28.80 28.80" id="film-roll" data-name="Flat Line" xmlns="http://www.w3.org/2000/svg" class="icon flat-line" stroke="#bc2424" transform="matrix(1, 0, 0, 1, 0, 0)">

<g id="SVGRepo_bgCarrier" stroke-width="0"/>

<g id="SVGRepo_tracerCarrier" stroke-linecap="round" stroke-linejoin="round"/>

<g id="SVGRepo_iconCarrier">

<circle id="secondary" cx="11" cy="12" r="8" style="fill: #000000; stroke-width:2.4;"/>

<line id="primary-upstroke" x1="10.95" y1="8.5" x2="11.05" y2="8.5" style="fill: none; stroke: #a41e1e; stroke-linecap: round; stroke-linejoin: round; stroke-width:2.4;"/>

<line id="primary-upstroke-2" data-name="primary-upstroke" x1="7.45" y1="12" x2="7.55" y2="12" style="fill: none; stroke: #a41e1e; stroke-linecap: round; stroke-linejoin: round; stroke-width:2.4;"/>

<line id="primary-upstroke-3" data-name="primary-upstroke" x1="11.05" y1="15.5" x2="10.95" y2="15.5" style="fill: none; stroke: #a41e1e; stroke-linecap: round; stroke-linejoin: round; stroke-width:2.4;"/>

<line id="primary-upstroke-4" data-name="primary-upstroke" x1="14.45" y1="12" x2="14.55" y2="12" style="fill: none; stroke: #a41e1e; stroke-linecap: round; stroke-linejoin: round; stroke-width:2.4;"/>

<path id="primary" d="M17.92,16A8,8,0,0,1,11,20H21a1,1,0,0,0,1-1V17a1,1,0,0,0-1-1ZM19,12a8,8,0,1,1-8-8A8,8,0,0,1,19,12Z" style="fill: none; stroke: #a41e1e; stroke-linecap: round; stroke-linejoin: round; stroke-width:2.4;"/>

</g>

</svg>